<?xml version="1.0"?>
<svg xmlns="http://www.w3.org/2000/svg" xmlns:xlink="http://www.w3.org/1999/xlink" xmlns:svgjs="http://svgjs.com/svgjs" version="1.1" width="512" height="512" x="0" y="0" viewBox="0 0 512 512" style="enable-background:new 0 0 512 512" xml:space="preserve"><g><g xmlns="http://www.w3.org/2000/svg" id="Outline"><path d="M136,192V376a8,8,0,0,0,8,8H368a8,8,0,0,0,8-8V136a8,8,0,0,0-8-8H144a8,8,0,0,0-8,8v40h16V144h64v88H152V192Zm160-48h64v88H296Zm-64,0h48v88H232Zm0,104h48v43.056l-4.422-2.211a8,8,0,0,0-7.156,0L256,295.056l-12.422-6.211a8,8,0,0,0-7.156,0L232,291.056Zm-16,0v56a8,8,0,0,0,11.578,7.155L240,304.944l12.422,6.211a8,8,0,0,0,7.156,0L272,304.944l12.422,6.211A8,8,0,0,0,296,304V248h64V368H152V248ZM344,352H328V336h16Zm-32,0H296V336h16Zm-32,0H264V336h16ZM425.706,86.294A238.436,238.436,0,0,1,496,256a243.036,243.036,0,0,1-2.285,33.115,8,8,0,0,1-7.925,6.906,7.89,7.89,0,0,1-1.1-.077l-31.7-4.416a8,8,0,0,1-6.82-9.018A194.4,194.4,0,0,0,448,256c0-105.869-86.131-192-192-192A191.828,191.828,0,0,0,95.686,150.329l13.212,6.69a8,8,0,0,1,.077,14.235L52.851,200.435a8,8,0,0,1-11.561-5.664L29.727,131.318a8,8,0,0,1,11.484-8.571l11.415,5.78a241.46,241.46,0,0,1,25.191-33.3l11.877,10.721a225.224,225.224,0,0,0-27.166,37.1,8,8,0,0,1-10.519,3.1l-3.654-1.85,6.732,36.94L87.761,164.25l-7.133-3.611A8,8,0,0,1,77.376,149.4,207.885,207.885,0,0,1,256,48c114.691,0,208,93.309,208,208,0,6.886-.349,13.841-1.038,20.763l15.858,2.21A226.027,226.027,0,0,0,480,256,223.994,223.994,0,0,0,102.544,92.829L91.579,81.177a239.991,239.991,0,0,1,334.127,5.117ZM65.83,229.49A194.561,194.561,0,0,0,64,256c0,105.869,86.131,192,192,192a191.852,191.852,0,0,0,160.646-86.825L405.2,356.9a8,8,0,0,1-1.652-14.143L456,307.649a8,8,0,0,1,12.1,4.318l18.783,61.7a8,8,0,0,1-10.451,9.825L462.525,378.3a241,241,0,0,1-32.732,43.2l-11.586-11.035a224.91,224.91,0,0,0,33.766-45.915,8,8,0,0,1,9.792-3.612l5.1,1.9-10.928-35.9-30.517,20.429,5.969,2.228a8,8,0,0,1,4.1,11.545A207.9,207.9,0,0,1,256,464C141.309,464,48,370.691,48,256c0-6.886.349-13.841,1.038-20.763l-15.858-2.21A226.027,226.027,0,0,0,32,256,223.99,223.99,0,0,0,406.814,421.611l10.778,11.826A239.993,239.993,0,0,1,16,256a243.036,243.036,0,0,1,2.285-33.115,8,8,0,0,1,9.029-6.829l31.7,4.416A8,8,0,0,1,65.83,229.49Z" fill="#6dfbcb" data-original="#000000" style=""/></g></g></svg>
